<?xml version="1.0" encoding="utf-8"?>
<!-- www.vectorico.com -->
<svg version="1.1" id="Blogger" xmlns="http://www.w3.org/2000/svg" xmlns:xlink="http://www.w3.org/1999/xlink" x="0px" y="0px"
	 viewBox="0 0 64 64" style="enable-background:new 0 0 64 64;" xml:space="preserve">
<style type="text/css">
	.st0{fill:#F2780C;}
	.st1{fill:#F1F2F2;}
</style>
<title>Blogger Icon</title>
<circle class="st0" cx="32" cy="32" r="32"/>
<path id="_x3C_path_x3E_" class="st1" d="M46.4,27.9h-1.8c-1.1,0-2.1-1-2.2-2.1c0-5.9-4.8-10.3-10.7-10.3h-5.4
	c-5.9,0-10.7,4.8-10.7,10.7v11.7c0,5.9,4.8,10.7,10.7,10.7h11.6c5.9,0,10.7-4.8,10.7-10.7v-7.6C48.5,29.1,47.6,27.9,46.4,27.9z
	 M26.5,23.7H32c1.5,0.1,2.7,1.4,2.6,2.9c-0.1,1.4-1.2,2.6-2.6,2.6h-5.5c-1.5,0.1-2.8-1.1-2.9-2.6c-0.1-1.5,1.1-2.8,2.6-2.9
	C26.3,23.7,26.4,23.7,26.5,23.7z M37.5,40.3h-11c-1.5-0.1-2.7-1.4-2.6-2.9c0.1-1.4,1.2-2.6,2.6-2.6h11c1.5-0.1,2.8,1.1,2.9,2.6
	s-1.1,2.8-2.6,2.9C37.7,40.3,37.6,40.3,37.5,40.3z"/>
</svg>
